<svg width="24" height="24" viewBox="0 0 24 24" fill="none" xmlns="http://www.w3.org/2000/svg">
<g clip-path="url(#clip0_191_407)">
<path d="M19.0598 18.67L16.9198 14.4L14.7798 18.67" stroke="#04080B" stroke-width="1.5" stroke-linecap="round" stroke-linejoin="round"/>
<path d="M15.1699 17.91H18.6899" stroke="#04080B" stroke-width="1.5" stroke-linecap="round" stroke-linejoin="round"/>
<path d="M19.9201 21.02C19.0801 21.63 18.0501 22 16.9301 22C14.1301 22 11.8501 19.73 11.8501 16.92C11.8501 14.12 14.1201 11.84 16.9301 11.84C19.7301 11.84 22.0101 14.11 22.0101 16.92" stroke="#04080B" stroke-width="1.5" stroke-linecap="round" stroke-linejoin="round"/>
<path d="M11.95 8.92999C12 11 11 12 8.92999 11.95H5.00999C2.99999 12 2 11 2 8.92999V5.01001C2 2.99001 3 1.98999 5.02 1.98999H8.94C11.01 1.98999 12.01 2.99001 11.96 5.01001" stroke="#04080B" stroke-width="1.5" stroke-linecap="round" stroke-linejoin="round"/>
<path d="M9.0097 5.84998H4.94971" stroke="#04080B" stroke-width="1.5" stroke-linecap="round" stroke-linejoin="round"/>
<path d="M6.96973 5.16998V5.84998" stroke="#04080B" stroke-width="1.5" stroke-linecap="round" stroke-linejoin="round"/>
<path d="M7.98994 5.84003C7.98994 7.59003 6.61994 9.01001 4.93994 9.01001" stroke="#04080B" stroke-width="1.5" stroke-linecap="round" stroke-linejoin="round"/>
<path d="M9.01015 9.01001C8.28015 9.01001 7.62016 8.62 7.16016 8" stroke="#04080B" stroke-width="1.5" stroke-linecap="round" stroke-linejoin="round"/>
<path d="M2 15C2 18.87 5.13 22 9 22L7.95 20.25" stroke="#04080B" stroke-width="1.5" stroke-linecap="round" stroke-linejoin="round"/>
<path d="M22 9C22 5.13 18.87 2 15 2L16.05 3.75" stroke="#04080B" stroke-width="1.5" stroke-linecap="round" stroke-linejoin="round"/>
</g>
<defs>
<clipPath id="clip0_191_407">
<rect width="24" height="24" fill="white"/>
</clipPath>
</defs>
</svg>
